<?xml version="1.0" encoding="utf-8"?>
<!-- Generator: Adobe Illustrator 27.2.0, SVG Export Plug-In . SVG Version: 6.00 Build 0)  -->
<svg version="1.1" id="Layer_1" xmlns="http://www.w3.org/2000/svg" xmlns:xlink="http://www.w3.org/1999/xlink" x="0px" y="0px"
	 viewBox="0 0 512 512" style="enable-background:new 0 0 512 512;" xml:space="preserve">
<style type="text/css">
	.st0{fill-rule:evenodd;clip-rule:evenodd;fill:#FEFEFE;}
	.st1{clip-path:url(#SVGID_00000097464277617921314540000010793625749515967935_);fill:#FEFEFE;}
	.st2{clip-path:url(#SVGID_00000116232756582111472140000005834758326035905214_);fill:#275E31;}
	.st3{fill:#FEFEFE;}
	.st4{clip-path:url(#SVGID_00000094585045533603716480000017191945041402239416_);fill:#275E31;}
	.st5{fill:#275E31;}
	.st6{clip-path:url(#SVGID_00000142173638090243941050000009879283944988811942_);fill:#275E31;}
	.st7{clip-path:url(#SVGID_00000030489143276172261930000004150511349630821772_);fill:#579C3B;}
	.st8{clip-path:url(#SVGID_00000000207635921733213010000015242437728771985049_);fill:#579C3B;}
	.st9{fill:#FFFFFF;}
	.st10{clip-path:url(#SVGID_00000106131189947394179540000003243192687147493014_);fill:#FFFFFF;}
	.st11{clip-path:url(#SVGID_00000106131189947394179540000003243192687147493014_);fill:#579C3B;}
	.st12{clip-path:url(#SVGID_00000139994057706224584060000003153212575847655563_);fill:#579C3B;}
	.st13{clip-path:url(#SVGID_00000178205096999240982980000014885838170878363059_);fill:#579C3B;}
	.st14{clip-path:url(#SVGID_00000100348444876204292900000017749168288838417282_);fill:#579C3B;}
	.st15{clip-path:url(#SVGID_00000006684498914890123220000005266312420091290526_);fill:#579C3B;}
	.st16{clip-path:url(#SVGID_00000115516166870424997770000011375386497145723273_);fill:#579C3B;}
	.st17{clip-path:url(#SVGID_00000014613939400884703490000012754656830637258658_);fill:#FEFEFE;}
	.st18{clip-path:url(#SVGID_00000007389986127420311000000017075336891223510425_);fill:#FEFEFE;}
	.st19{clip-path:url(#SVGID_00000111900215291755352680000000128831174232089221_);fill:#FEFEFE;}
	.st20{clip-path:url(#SVGID_00000172401939178848187860000007620992669769713032_);fill:#FEFEFE;}
	.st21{clip-path:url(#SVGID_00000082356822386349418840000007987498607765614990_);fill:#FEFEFE;}
	.st22{clip-path:url(#SVGID_00000145055850377773248660000017807206394668924859_);fill:#FEFEFE;}
	.st23{fill:#579C3B;}
	.st24{clip-path:url(#SVGID_00000168831157394972166820000016446514946599516821_);fill:#FEFEFE;}
	.st25{clip-path:url(#SVGID_00000142883645503571950150000011773986962276886957_);fill:#FEFEFE;}
	.st26{clip-path:url(#SVGID_00000059284690672099914540000005283727627602930613_);fill:#FEFEFE;}
</style>
<g>
	<polyline class="st0" points="414.33,369.47 414.36,369.49 414.33,369.47 	"/>
	<path class="st0" d="M56.92,192.85c9.63-16.91,23.23-30.55,40.42-40.54c17.19-10,35.61-15.07,54.73-15.07
		c19.52,0,38.26,5.08,55.72,15.09c17.44,10,31.12,23.49,40.68,40.08c9.57,16.61,14.43,35.49,14.43,56.13
		c0,20.79-4.87,39.92-14.46,56.86c-9.55,16.88-23.07,30.37-40.15,40.11c-17.14,9.77-36.05,14.72-56.22,14.72
		c-30.54,0-55.91-10.45-77.54-31.96c-21.64-21.5-32.15-47.14-32.15-78.4C42.38,228.97,47.27,209.79,56.92,192.85 M153.11,404.55
		c43.24,0,80.41-15.28,110.49-45.41c30.08-30.12,45.32-67.3,45.32-110.51c0-13.28-1.44-25.97-4.26-38.05h71.92v213.59
		c13.61-18.55,25.87-38.68,37.13-59.49c2.3,2.79,5.24,5.23,8.52,7.44V210.59h89.59v-44.51h-225.7c-6.28-10-13.8-19.41-22.64-28.18
		c-30.14-29.85-68.04-44.98-112.65-44.98c-27.6,0-53.62,6.96-77.34,20.69c-23.74,13.73-42.74,32.99-56.47,57.23
		c-7.95,14.04-13.57,28.93-16.93,44.47v69.5c6.19,28.08,20.12,53.07,41.71,74.56C71.92,389.35,109.37,404.55,153.11,404.55"/>
	<g>
		<defs>
			<polyline id="SVGID_1_" points="0.08,74.38 511.82,74.38 511.82,511.74 0.08,511.74 0.08,74.38 			"/>
		</defs>
		<clipPath id="SVGID_00000103983357481195399920000002014524678069265051_">
			<use xlink:href="#SVGID_1_"  style="overflow:visible;"/>
		</clipPath>
		<path style="clip-path:url(#SVGID_00000103983357481195399920000002014524678069265051_);fill:#FEFEFE;" d="M269.62,511.66
			c-0.06,0.02-0.18,0.05-0.34,0.08l0,0h-11.81c-0.49,0-0.99,0-1.52,0l0,0l0,0c0.05,0,0.09,0,0.14,0h-0.14l0,0l0,0H0.08l0,0h271.38
			c-0.01,0-0.02,0-0.04,0h-2.07c0,0-0.01,0-0.01,0l0,0h-0.07l0,0C269.43,511.7,269.55,511.68,269.62,511.66 M348.77,511.61
			c-1.14,0.06-2.26,0.11-3.34,0.13h1.75C347.7,511.7,348.24,511.66,348.77,511.61 M269.35,511.61c-0.45,0-1.45,0.03-3.24,0.06
			C267.9,511.64,268.9,511.61,269.35,511.61c0.24,0,0.33,0.01,0.31,0.03C269.68,511.62,269.59,511.61,269.35,511.61 M269.28,510.02
			c-4.64,1.09-9.13,1.68-13.33,1.72l0,0l0,0c0.05,0,0.1,0,0.14,0C260.26,511.69,264.69,511.1,269.28,510.02 M284.11,507.95
			c-4.02,1.56-8.9,3.1-13.64,3.68C275.21,511.04,280.09,509.51,284.11,507.95 M293.17,503.82l-0.02,0.01
			c-0.04,0.02-0.1,0.05-0.18,0.09C293.06,503.88,293.13,503.85,293.17,503.82 M308.88,499.75c-18.33,7.27-31.81,11.7-36.55,12h0.04
			C277.15,511.42,290.61,507,308.88,499.75 M309.26,490.96c-5.61,3.74-11.4,7.2-17.39,10.36c-1.9,1-3.81,1.94-5.71,2.81
			c1.91-0.87,3.81-1.81,5.71-2.81C297.86,498.16,303.65,494.7,309.26,490.96 M411.77,455.02c-0.04,0.02-0.07,0.04-0.11,0.06
			c-19.48,10.35-40.48,20.37-61.51,29.12c21.03-8.75,42.03-18.78,61.51-29.13h0C411.7,455.05,411.73,455.04,411.77,455.02
			 M383.77,414.07c-2.35,3.42-4.74,6.79-7.18,10.11v4.71c0,0,0,0,0,0c0,0,0,0,0,0v-4.71l0,0
			C379.02,420.85,381.42,417.48,383.77,414.07 M383.8,414.01c0,0-0.01,0.01-0.01,0.01C383.8,414.02,383.8,414.02,383.8,414.01
			 M511.82,408.14c0,0.03,0,0.05,0,0.07v103.53H347.19c-0.01,0-0.01,0-0.02,0h164.65V408.14 M176.61,402.97
			c-7.62,1.06-15.45,1.58-23.5,1.58c0,0,0,0,0,0C161.16,404.55,168.99,404.03,176.61,402.97 M447.98,385.88
			c12.6,3.27,24.97,4.57,32.3,4.64C472.95,390.45,460.59,389.16,447.98,385.88 M447.93,385.87c0.01,0,0.03,0.01,0.04,0.01
			C447.95,385.88,447.94,385.87,447.93,385.87 M504.22,383.76c-1.17,0.74-2.39,1.39-3.64,1.97c1.25-0.58,2.46-1.23,3.63-1.96
			L504.22,383.76C504.22,383.76,504.22,383.76,504.22,383.76 M511.82,382.39c0,2.22,0,5.18,0,8.9v1.61c0,2.85,0,6.1,0,9.75V382.39
			 M433.46,381.43c7.56,3.19,15.65,5.41,23.17,6.91C449.11,386.83,441.02,384.62,433.46,381.43 M422.24,375.49v0.11c0,0,0,0,0,0
			c0,0,0,0,0,0L422.24,375.49C422.24,375.49,422.24,375.49,422.24,375.49 M418.57,373.01c0.63,0.46,1.27,0.92,1.93,1.36
			C419.84,373.93,419.19,373.47,418.57,373.01 M511.51,372.93c-0.42,1.68-1.13,4.2-3.87,7.43
			C510.38,377.12,511.09,374.61,511.51,372.93 M511.82,369.81l0,0.09v7.38c-1.33,2.41-3.13,4.91-5.12,7.44
			c-2.56,5.67-7.05,11.51-13.98,17.73c-16.21,14.52-45.21,33.42-79,51.5c-0.16,0.09-0.32,0.17-0.48,0.26
			c0.16-0.09,0.32-0.17,0.48-0.26c0,0,0,0,0,0v1.11h0v-1.11c33.79-18.09,62.8-36.98,79-51.51c6.93-6.22,11.42-12.05,13.98-17.73
			c1.99-2.53,3.79-5.03,5.12-7.44v0v0c0,0,0,0,0,0V369.81 M74.47,328.22c0.02,0.02,0.04,0.04,0.06,0.06
			c21.64,21.5,47,31.96,77.54,31.96c20.17,0,39.08-4.95,56.22-14.72c5.05-2.88,9.79-6.09,14.21-9.62
			c-4.42,3.53-9.16,6.74-14.22,9.62c-17.13,9.77-36.05,14.72-56.22,14.72l0,0l0,0c-30.54,0-55.91-10.45-77.54-31.96
			C74.51,328.26,74.49,328.24,74.47,328.22 M4.12,299.52c7.35,22.16,19.91,42.19,37.66,59.84c24.63,24.51,54.15,39.14,87.99,43.67
			c-33.84-4.53-63.36-19.16-87.99-43.67C24.04,341.71,11.48,321.68,4.12,299.52 M45.39,222.5c-2.01,8.74-3.02,17.88-3.02,27.38
			c0,18.32,3.61,34.71,10.96,49.47c-7.35-14.76-10.96-31.15-10.96-49.47l0,0l0,0C42.38,240.38,43.39,231.24,45.39,222.5
			 M260.1,222.43c1.86,8.34,2.79,17.06,2.79,26.12c0,8.34-0.78,16.42-2.34,24.19c1.56-7.77,2.34-15.85,2.34-24.19
			C262.89,239.49,261.96,230.77,260.1,222.43 M304.66,210.59L304.66,210.59c2.82,12.08,4.26,24.76,4.26,38.05
			c0,43.21-15.24,80.4-45.32,110.51c-7.1,7.11-14.59,13.39-22.47,18.84c7.88-5.45,15.37-11.73,22.47-18.84
			c30.07-30.12,45.32-67.3,45.32-110.51C308.93,235.35,307.49,222.67,304.66,210.59 M422.24,210.59L422.24,210.59v161.54
			c-3.28-2.21-6.22-4.65-8.52-7.44c-3.75,6.93-7.62,13.79-11.61,20.54c3.99-6.75,7.85-13.61,11.61-20.54
			c2.3,2.79,5.24,5.23,8.52,7.44v3.36c0,0,0,0,0,0v-3.36l0,0c0,0,0,0,0,0L422.24,210.59 M511.82,210.59L511.82,210.59l0,153.68
			c-0.4,6.21-3.01,10.91-6.56,14.44c3.54-3.51,6.15-8.19,6.57-14.37v-0.07l0-0.03V210.59 M213.27,155.67
			c14.84,9.6,26.66,21.93,35.19,36.74c0.3,0.51,0.59,1.03,0.87,1.54c-0.29-0.52-0.58-1.03-0.87-1.54
			C239.94,177.6,228.11,165.26,213.27,155.67 M95.08,153.65c-7.12,4.36-13.61,9.37-19.42,14.99
			C81.47,163.02,87.96,158.01,95.08,153.65 M28.28,153.62c-4.08,5.42-7.84,11.17-11.27,17.22c-2.04,3.61-3.93,7.27-5.66,10.98
			c1.74-3.71,3.62-7.38,5.67-10.98C20.44,164.79,24.2,159.04,28.28,153.62 M271.07,145.95c5.64,6.41,10.65,13.12,15.05,20.13h0
			C281.72,159.07,276.71,152.36,271.07,145.95 M150.83,92.92c-27.6,0-53.62,6.96-77.35,20.69c-5.71,3.3-11.14,6.93-16.3,10.86
			c5.15-3.94,10.59-7.56,16.3-10.86C97.2,99.88,123.23,92.92,150.83,92.92c30.72,0,58.27,7.19,82.29,21.41
			C209.1,100.1,181.55,92.92,150.83,92.92 M511.82,74.38L511.82,74.38l0,91.7h0L511.82,74.38"/>
		<path style="clip-path:url(#SVGID_00000103983357481195399920000002014524678069265051_);fill:#FEFEFE;" d="M95.08,153.65
			c0.75-0.46,1.5-0.91,2.26-1.35c17.19-10,35.6-15.07,54.73-15.07c19.52,0,38.26,5.08,55.72,15.09c1.87,1.07,3.7,2.19,5.49,3.34
			c14.84,9.59,26.67,21.93,35.19,36.74c0.29,0.51,0.58,1.02,0.87,1.54c4.92,8.88,8.52,18.4,10.76,28.48
			c1.86,8.34,2.79,17.06,2.79,26.12c0,8.34-0.78,16.42-2.34,24.19c-2.32,11.6-6.37,22.53-12.11,32.67
			c-6.73,11.88-15.42,22.09-25.94,30.49c-4.42,3.53-9.16,6.74-14.21,9.62c-17.14,9.77-36.05,14.72-56.22,14.72
			c-30.54,0-55.91-10.45-77.54-31.96c-0.02-0.02-0.04-0.04-0.06-0.06c-8.93-8.88-15.96-18.47-21.13-28.87
			c-7.35-14.76-10.96-31.15-10.96-49.47c0-9.5,1.01-18.64,3.02-27.38c2.41-10.5,6.26-20.41,11.53-29.65
			c5.14-9.02,11.41-17.1,18.74-24.2C81.47,163.02,87.96,158.01,95.08,153.65 M150.82,92.92c-27.6,0-53.62,6.96-77.34,20.69
			c-5.71,3.3-11.15,6.92-16.3,10.86c-10.92,8.34-20.58,18.08-28.9,29.14c-4.08,5.42-7.84,11.17-11.27,17.22
			c-2.04,3.61-3.93,7.27-5.67,10.98c-5.02,10.75-8.76,21.93-11.26,33.47v69.53c1.1,5,2.45,9.9,4.04,14.7
			c7.35,22.16,19.92,42.19,37.66,59.84c24.63,24.51,54.15,39.14,87.99,43.67c7.57,1.01,15.35,1.52,23.34,1.52
			c8.04,0,15.88-0.53,23.5-1.58c23.66-3.28,45.24-11.63,64.53-24.98c7.88-5.45,15.37-11.73,22.47-18.84
			c30.08-30.12,45.32-67.3,45.32-110.51c0-13.28-1.44-25.97-4.26-38.05h0l0,0h71.92v213.59c0,0,0,0,0,0v0
			c2.44-3.32,4.83-6.69,7.18-10.11c0.01-0.01,0.02-0.03,0.03-0.04c0,0,0.01-0.01,0.01-0.01c6.39-9.29,12.48-18.92,18.31-28.78
			c3.99-6.75,7.85-13.61,11.61-20.54c2.3,2.79,5.24,5.23,8.52,7.44V210.59h0h89.58h0v-44.51h0l0,0h-225.7c0,0,0,0,0,0h0
			c-4.4-7.01-9.4-13.72-15.05-20.13c-2.41-2.74-4.95-5.42-7.6-8.04c-9.38-9.29-19.51-17.15-30.36-23.58
			C209.1,100.1,181.55,92.92,150.82,92.92"/>
	</g>
	<g>
		<defs>
			<polyline id="SVGID_00000098209483167841588870000017225305030800012205_" points="314.68,511.74 335.28,511.74 335.28,511.93 
				314.68,511.93 314.68,511.74 			"/>
		</defs>
		<clipPath id="SVGID_00000136391486213465242080000003131147133240080789_">
			<use xlink:href="#SVGID_00000098209483167841588870000017225305030800012205_"  style="overflow:visible;"/>
		</clipPath>
		<path style="clip-path:url(#SVGID_00000136391486213465242080000003131147133240080789_);fill:#275E31;" d="M335.09,511.74h-20.4
			c0.52,0.14,2.34,0.19,4.86,0.19C323.71,511.93,329.79,511.8,335.09,511.74"/>
	</g>
	<polyline class="st3" points="511.82,377.29 511.82,377.29 511.82,377.29 511.82,377.29 	"/>
	<g>
		<defs>
			<polyline id="SVGID_00000075881654875476517320000010730520845192922783_" points="271.42,377.28 511.82,377.28 511.82,511.76 
				271.42,511.76 271.42,377.28 			"/>
		</defs>
		<clipPath id="SVGID_00000073679174695235279420000008063624678172268948_">
			<use xlink:href="#SVGID_00000075881654875476517320000010730520845192922783_"  style="overflow:visible;"/>
		</clipPath>
		<path style="clip-path:url(#SVGID_00000073679174695235279420000008063624678172268948_);fill:#275E31;" d="M314.69,511.74h-42.31
			c0,0-0.01,0-0.01,0L314.69,511.74L314.69,511.74C314.69,511.74,314.69,511.74,314.69,511.74 M335.29,511.74h-0.14
			c-0.02,0-0.04,0-0.06,0h0.18C335.28,511.74,335.29,511.74,335.29,511.74C335.29,511.74,335.29,511.74,335.29,511.74
			 M511.82,402.65v5.49c0-0.01,0-0.03,0-0.04v-0.92C511.82,405.61,511.82,404.1,511.82,402.65 M511.82,377.28
			C511.82,377.29,511.82,377.29,511.82,377.28l0,5.11c0-2.39,0-3.92,0-4.64V377.28"/>
		<path style="clip-path:url(#SVGID_00000073679174695235279420000008063624678172268948_);fill:#275E31;" d="M511.82,377.29
			c-1.33,2.41-3.12,4.91-5.12,7.44c-2.56,5.67-7.05,11.51-13.98,17.73c-16.21,14.53-45.22,33.42-79,51.51v1.11h0v0h-2.06l0,0
			c0,0,0,0,0,0h0c-19.48,10.35-40.48,20.37-61.51,29.13c-13.14,5.47-26.28,10.44-39.09,14.68c-0.73,0.29-1.46,0.58-2.18,0.87
			c-18.27,7.25-31.73,11.67-36.51,12h42.31c0,0,0,0,0,0l0,0h20.59l0,0c-0.04,0-0.08,0-0.12,0h0.14c0,0-0.01,0-0.01,0l0,0l0,0l0,0
			c1.48-0.02,2.9-0.03,4.19-0.03c1.1,0,2.11,0.01,3,0.03h2.97c1.08-0.02,2.19-0.07,3.34-0.13c45.84-4.08,143.9-40.34,163.05-103.51
			v0.11c0-0.03,0-0.05,0-0.07v-5.49c0-3.65,0-6.9,0-9.75v14.28l0,0v0.92v-0.92l0,0c0-5.55,0-10.31,0-14.28c0-0.55,0-1.09,0-1.61
			c0-7.7,0-12.16,0-13.53V377.29 M511.82,377.29C511.82,377.29,511.82,377.29,511.82,377.29l0,0.47l0,0v13.53c0-3.71,0-6.67,0-8.9
			V377.29"/>
		<polyline style="clip-path:url(#SVGID_00000073679174695235279420000008063624678172268948_);fill:#275E31;" points="
			511.82,407.18 511.82,408.1 511.82,407.18 511.82,407.18 		"/>
		<path style="clip-path:url(#SVGID_00000073679174695235279420000008063624678172268948_);fill:#275E31;" d="M335.15,511.74h-20.46
			c0,0,0,0,0,0h20.4C335.11,511.74,335.13,511.74,335.15,511.74"/>
		<path style="clip-path:url(#SVGID_00000073679174695235279420000008063624678172268948_);fill:#275E31;" d="M335.28,511.74h-20.59
			c0,0,0,0,0,0h20.46C335.19,511.74,335.23,511.74,335.28,511.74"/>
		<polyline style="clip-path:url(#SVGID_00000073679174695235279420000008063624678172268948_);fill:#275E31;" points="
			511.82,377.29 511.82,377.29 511.82,377.76 511.82,377.76 511.82,377.29 		"/>
		<path style="clip-path:url(#SVGID_00000073679174695235279420000008063624678172268948_);fill:#275E31;" d="M272.37,511.74h-0.04
			c-0.14,0.01-0.27,0.01-0.39,0.01c-0.02,0-0.05,0-0.07,0s-0.04,0-0.07,0c-0.12,0-0.23-0.01-0.33-0.01h-0.05
			c0.13,0.01,0.28,0.02,0.43,0.02C272.01,511.76,272.18,511.76,272.37,511.74"/>
	</g>
	<polyline class="st3" points="413.72,453.96 413.72,453.96 413.72,455.07 413.72,455.07 413.72,453.96 	"/>
	<polyline class="st5" points="413.72,455.07 413.72,455.07 413.72,455.07 411.66,455.07 411.66,455.07 413.72,455.07 
		413.72,455.07 	"/>
	<g>
		<defs>
			<polyline id="SVGID_00000003827409584056646370000010172092945745749388_" points="411.66,453.96 413.72,453.96 413.72,455.07 
				411.66,455.07 411.66,453.96 			"/>
		</defs>
		<clipPath id="SVGID_00000042709443295212662910000005057555362466387897_">
			<use xlink:href="#SVGID_00000003827409584056646370000010172092945745749388_"  style="overflow:visible;"/>
		</clipPath>
		<path style="clip-path:url(#SVGID_00000042709443295212662910000005057555362466387897_);fill:#275E31;" d="M413.72,453.96
			c-0.16,0.09-0.32,0.17-0.48,0.26c-0.49,0.27-0.97,0.53-1.46,0.79c-0.03,0.02-0.07,0.04-0.1,0.06h2.05V453.96"/>
		<polyline style="clip-path:url(#SVGID_00000042709443295212662910000005057555362466387897_);fill:#275E31;" points="
			413.72,455.07 411.66,455.07 411.66,455.07 413.72,455.07 413.72,455.07 		"/>
	</g>
	<g>
		<defs>
			<polyline id="SVGID_00000119810816813632237150000002469577761031189411_" points="335.28,511.71 342.46,511.71 342.46,511.74 
				335.28,511.74 335.28,511.71 			"/>
		</defs>
		<clipPath id="SVGID_00000170250583975542954040000010252228600745624746_">
			<use xlink:href="#SVGID_00000119810816813632237150000002469577761031189411_"  style="overflow:visible;"/>
		</clipPath>
		<path style="clip-path:url(#SVGID_00000170250583975542954040000010252228600745624746_);fill:#579C3B;" d="M339.48,511.72
			c-1.24,0-2.6,0.01-4.03,0.03h6.91C341.51,511.72,340.54,511.72,339.48,511.72"/>
		<path style="clip-path:url(#SVGID_00000170250583975542954040000010252228600745624746_);fill:#579C3B;" d="M339.47,511.72
			c-1.3,0-2.71,0.01-4.19,0.03h0.18c1.42-0.02,2.78-0.03,4.03-0.03c1.06,0,2.03,0.01,2.89,0.03h0.1
			C341.58,511.72,340.57,511.72,339.47,511.72"/>
	</g>
	<g>
		<defs>
			<polyline id="SVGID_00000119108453366376816030000013156178496649062536_" points="42.38,137.23 262.89,137.23 262.89,360.23 
				42.38,360.23 42.38,137.23 			"/>
		</defs>
		<clipPath id="SVGID_00000152949112329772245220000001549178385532890549_">
			<use xlink:href="#SVGID_00000119108453366376816030000013156178496649062536_"  style="overflow:visible;"/>
		</clipPath>
		<path style="clip-path:url(#SVGID_00000152949112329772245220000001549178385532890549_);fill:#579C3B;" d="M152.07,137.24
			c-19.13,0-37.54,5.07-54.73,15.07c-0.76,0.44-1.51,0.89-2.26,1.35c-7.12,4.36-13.61,9.37-19.42,14.99
			c-7.34,7.1-13.6,15.19-18.74,24.21c-5.27,9.24-9.12,19.15-11.53,29.65c-2.01,8.74-3.02,17.88-3.02,27.38l0,0
			c0,18.32,3.61,34.71,10.96,49.47c5.18,10.4,12.21,19.99,21.13,28.87c0.02,0.02,0.04,0.04,0.06,0.06
			c21.64,21.5,47,31.96,77.54,31.96l0,0c20.17,0,39.08-4.95,56.22-14.72c5.06-2.88,9.8-6.09,14.22-9.62
			c10.52-8.4,19.21-18.6,25.94-30.49c5.74-10.14,9.79-21.07,12.11-32.67c1.56-7.77,2.34-15.85,2.34-24.19
			c0-9.06-0.93-17.78-2.79-26.12c-2.25-10.08-5.84-19.59-10.76-28.48c-0.29-0.52-0.58-1.03-0.87-1.54
			c-8.53-14.81-20.35-27.14-35.19-36.74c-1.78-1.15-3.61-2.27-5.48-3.34C190.33,142.31,171.59,137.24,152.07,137.24"/>
		<path style="clip-path:url(#SVGID_00000152949112329772245220000001549178385532890549_);fill:#579C3B;" d="M53.33,299.35
			c5.18,10.4,12.2,19.99,21.13,28.87C65.54,319.33,58.51,309.75,53.33,299.35 M260.55,272.74c-2.32,11.6-6.37,22.53-12.11,32.67
			c-6.73,11.89-15.42,22.09-25.94,30.49c10.52-8.4,19.21-18.61,25.94-30.49C254.18,295.27,258.23,284.34,260.55,272.74
			 M249.34,193.95c4.92,8.88,8.52,18.4,10.76,28.48C257.86,212.35,254.26,202.83,249.34,193.95 M75.66,168.64
			c-7.34,7.1-13.61,15.19-18.74,24.2c-5.27,9.24-9.12,19.16-11.53,29.65c2.41-10.5,6.26-20.41,11.53-29.65
			C62.06,183.83,68.32,175.75,75.66,168.64 M152.07,137.23c-19.13,0-37.54,5.07-54.73,15.07c-0.76,0.44-1.51,0.89-2.26,1.35
			c0.75-0.46,1.5-0.91,2.26-1.35C114.53,142.3,132.94,137.24,152.07,137.23c19.52,0,38.26,5.08,55.72,15.1
			c1.87,1.07,3.7,2.19,5.48,3.34c-1.78-1.15-3.61-2.27-5.49-3.34C190.33,142.32,171.59,137.23,152.07,137.23"/>
	</g>
	<path class="st9" d="M340.93,512h-0.38c0.06,0,0.13,0,0.19,0C340.8,512,340.87,512,340.93,512"/>
	<g>
		<defs>
			<polyline id="SVGID_00000018943326222205786150000007392783349823064507_" points="335.28,408.1 511.82,408.1 511.82,512 
				335.28,512 335.28,408.1 			"/>
		</defs>
		<clipPath id="SVGID_00000151542334117453813890000004453470029995414933_">
			<use xlink:href="#SVGID_00000018943326222205786150000007392783349823064507_"  style="overflow:visible;"/>
		</clipPath>
		<path style="clip-path:url(#SVGID_00000151542334117453813890000004453470029995414933_);fill:#FFFFFF;" d="M341.39,512h-1.27
			c0.15,0,0.29,0,0.44,0h0.38C341.08,512,341.23,512,341.39,512"/>
		<path style="clip-path:url(#SVGID_00000151542334117453813890000004453470029995414933_);fill:#579C3B;" d="M511.82,408.21
			c-2.18,57.3-113.41,100.59-163.05,103.4c-0.53,0.05-1.07,0.09-1.58,0.13h164.63V408.21"/>
		<path style="clip-path:url(#SVGID_00000151542334117453813890000004453470029995414933_);fill:#579C3B;" d="M511.82,408.1
			c-19.15,63.17-117.21,99.43-163.05,103.51c49.64-2.81,160.87-46.1,163.05-103.4V408.1"/>
		<path style="clip-path:url(#SVGID_00000151542334117453813890000004453470029995414933_);fill:#579C3B;" d="M347.17,511.74h-1.8
			c-0.51,0.01-1,0.01-1.49,0.01c-0.48,0-0.95,0-1.41-0.01c-0.01,0-0.02,0-0.03,0h-7.1c-0.01,0-0.03,0-0.04,0
			c1.47,0.15,3.08,0.24,4.82,0.25h1.27C343.19,511.98,345.12,511.9,347.17,511.74"/>
		<path style="clip-path:url(#SVGID_00000151542334117453813890000004453470029995414933_);fill:#579C3B;" d="M342.37,511.74h-6.91
			c-0.04,0-0.08,0-0.12,0h7.1C342.41,511.74,342.39,511.74,342.37,511.74 M347.19,511.74h-1.75c-0.02,0-0.04,0-0.07,0h1.8
			C347.17,511.74,347.18,511.74,347.19,511.74"/>
		<path style="clip-path:url(#SVGID_00000151542334117453813890000004453470029995414933_);fill:#579C3B;" d="M335.33,511.74h-0.05
			c0,0,0,0,0,0C335.31,511.74,335.32,511.74,335.33,511.74 M345.37,511.74h-2.94c0.01,0,0.02,0,0.03,0
			c0.46,0.01,0.94,0.01,1.41,0.01C344.36,511.76,344.86,511.75,345.37,511.74"/>
		<path style="clip-path:url(#SVGID_00000151542334117453813890000004453470029995414933_);fill:#579C3B;" d="M335.46,511.74h-0.18
			c0,0,0.01,0,0.01,0h0.05C335.38,511.74,335.42,511.74,335.46,511.74 M345.44,511.74h-2.97l0,0l0,0h-0.1c0.02,0,0.04,0,0.06,0h2.94
			C345.39,511.74,345.41,511.74,345.44,511.74"/>
	</g>
	<path class="st5" d="M271.93,511.76h-0.14c0.02,0,0.04,0,0.07,0S271.91,511.76,271.93,511.76"/>
	<g>
		<defs>
			<polyline id="SVGID_00000147940651015689148740000000559222267655064483_" points="269.34,369.47 511.82,369.47 511.82,511.76 
				269.34,511.76 269.34,369.47 			"/>
		</defs>
		<clipPath id="SVGID_00000072259486512462678470000001752482360673620889_">
			<use xlink:href="#SVGID_00000147940651015689148740000000559222267655064483_"  style="overflow:visible;"/>
		</clipPath>
		<polyline style="clip-path:url(#SVGID_00000072259486512462678470000001752482360673620889_);fill:#579C3B;" points="
			272.33,511.74 271.46,511.74 271.47,511.74 272.32,511.74 272.33,511.74 		"/>
		<path style="clip-path:url(#SVGID_00000072259486512462678470000001752482360673620889_);fill:#579C3B;" d="M411.01,375.43
			c-4.18,7.43-8.38,14.54-12.61,21.35C402.63,389.98,406.83,382.86,411.01,375.43 M414.33,369.47c-1.1,2.01-2.21,4-3.31,5.97
			c-4.18,7.43-8.38,14.54-12.61,21.35c-7.18,11.56-14.44,22.23-21.81,32.1l0,0v0c0,0,0,0,0,0l0,0l0,0c0,0,0,0,0,0v0c0,0,0,0,0,0l0,0
			l0,0c-25.78,34.49-53.04,58.9-83.39,74.92l-0.03,0.01c-0.04,0.02-0.11,0.06-0.19,0.1c-0.17,0.09-0.41,0.21-0.7,0.36l-0.26,0.14
			c-1.5,0.76-4.37,2.15-7.9,3.52c-4.02,1.56-8.9,3.1-13.64,3.68c-0.37,0.05-0.75,0.09-1.12,0.12h2.07c0.01,0,0.02,0,0.04,0h0.87
			c4.74-0.3,18.22-4.72,36.55-12c0.72-0.29,1.45-0.58,2.19-0.87c12.8-4.24,25.95-9.21,39.08-14.68
			c21.03-8.75,42.03-18.78,61.51-29.12c0.04-0.02,0.07-0.04,0.11-0.06c0.49-0.27,0.98-0.53,1.46-0.79c0.16-0.09,0.32-0.17,0.48-0.26
			c33.79-18.09,62.8-36.98,79-51.5c6.93-6.22,11.42-12.05,13.98-17.73c1.99-2.53,3.79-5.03,5.12-7.44v-7.38l-0.03,1.94
			c-0.09,0.31-0.18,0.67-0.28,1.08c-0.42,1.68-1.13,4.2-3.87,7.43c-0.9,1.06-2.02,2.2-3.42,3.41c0,0,0,0,0,0c0,0,0,0,0,0l-0.01,0.01
			c0,0,0.01,0,0.01-0.01l-0.86,0.77c-2.91,1.65-9.51,6.17-20.43,6.59c-0.33,0.01-0.68,0.01-1.05,0.01c-0.06,0-0.11,0-0.17,0
			c-0.06,0-0.12,0-0.17,0c-5.19-0.02-14.48-0.72-24.9-2.8c-7.52-1.5-15.61-3.72-23.17-6.91c-3.94-1.66-7.73-3.59-11.22-5.82l0,0v0
			c0,0,0,0,0,0c0,0,0,0,0,0v0l0,0c-2.63-1.68-5.09-3.53-7.3-5.57c-0.2-0.18-0.39-0.36-0.58-0.54l-0.01-0.01L414.33,369.47
			 M414.33,369.47C414.33,369.47,414.33,369.47,414.33,369.47l0.01,0.01L414.33,369.47"/>
		<polyline style="clip-path:url(#SVGID_00000072259486512462678470000001752482360673620889_);fill:#579C3B;" points="
			414.33,369.47 414.33,369.47 414.34,369.48 414.33,369.47 		"/>
		<path style="clip-path:url(#SVGID_00000072259486512462678470000001752482360673620889_);fill:#579C3B;" d="M350.15,484.2
			c-13.14,5.47-26.28,10.44-39.08,14.68c-0.74,0.3-1.46,0.59-2.19,0.87c0.72-0.29,1.45-0.58,2.18-0.87
			C323.87,494.63,337.02,489.66,350.15,484.2"/>
		<path style="clip-path:url(#SVGID_00000072259486512462678470000001752482360673620889_);fill:#579C3B;" d="M272.32,511.74h-0.86
			c0.1,0.01,0.21,0.01,0.33,0.01h0.14C272.05,511.76,272.18,511.75,272.32,511.74"/>
		<path style="clip-path:url(#SVGID_00000072259486512462678470000001752482360673620889_);fill:#579C3B;" d="M413.23,454.22
			c-0.49,0.26-0.97,0.53-1.46,0.79C412.26,454.76,412.74,454.49,413.23,454.22"/>
	</g>
	<polyline class="st9" points="0.08,284.82 0.08,511.74 0.08,511.74 0.08,511.74 0.08,284.83 0.08,284.82 	"/>
	<polyline class="st3" points="0.08,284.81 0.08,284.82 0.08,284.83 0.08,284.81 0.08,284.81 	"/>
	<g>
		<defs>
			<polyline id="SVGID_00000030474009247643769880000000762218812032642719_" points="0.08,210.59 376.59,210.59 376.59,511.74 
				0.08,511.74 0.08,210.59 			"/>
		</defs>
		<clipPath id="SVGID_00000038382164237894126040000002915520115179793800_">
			<use xlink:href="#SVGID_00000030474009247643769880000000762218812032642719_"  style="overflow:visible;"/>
		</clipPath>
		<polyline style="clip-path:url(#SVGID_00000038382164237894126040000002915520115179793800_);fill:#579C3B;" points="0.08,284.83 
			0.08,511.74 0.08,511.74 0.08,284.83 0.08,284.83 		"/>
		<polyline style="clip-path:url(#SVGID_00000038382164237894126040000002915520115179793800_);fill:#579C3B;" points="0.08,284.81 
			0.08,284.83 0.08,284.83 0.08,284.82 0.08,284.81 		"/>
		<path style="clip-path:url(#SVGID_00000038382164237894126040000002915520115179793800_);fill:#579C3B;" d="M376.58,210.59h-71.92
			c2.83,12.08,4.26,24.76,4.26,38.05c0,43.21-15.25,80.4-45.32,110.51c-7.1,7.11-14.59,13.39-22.47,18.84
			c-19.29,13.35-40.86,21.7-64.53,24.98c-7.62,1.06-15.45,1.58-23.5,1.58l0,0c0,0,0,0,0,0c-7.99,0-15.77-0.51-23.34-1.52
			c-33.84-4.53-63.36-19.16-87.99-43.67c-17.74-17.66-30.31-37.68-37.66-59.84c-1.59-4.8-2.94-9.69-4.04-14.69v226.91l255.87,0
			c4.2-0.03,8.69-0.62,13.33-1.72c5.48-1.29,11.18-3.29,16.88-5.89c1.91-0.87,3.81-1.81,5.71-2.81c5.98-3.16,11.77-6.62,17.39-10.36
			c25.91-17.26,47.99-40.42,67.33-66.78V210.59"/>
		<path style="clip-path:url(#SVGID_00000038382164237894126040000002915520115179793800_);fill:#579C3B;" d="M129.77,403.03
			c7.57,1.01,15.35,1.52,23.34,1.52l0,0C145.12,404.55,137.34,404.05,129.77,403.03 M241.14,377.99
			c-19.29,13.35-40.86,21.7-64.53,24.98C200.28,399.69,221.85,391.34,241.14,377.99 M0.08,284.82v0.01
			c1.1,4.99,2.45,9.89,4.04,14.69C2.53,294.72,1.19,289.82,0.08,284.82 M376.59,210.59h-71.92l0,0H376.59l0,213.59c0,0,0,0,0,0
			L376.59,210.59"/>
		<path style="clip-path:url(#SVGID_00000038382164237894126040000002915520115179793800_);fill:#579C3B;" d="M256.09,511.74
			c-0.05,0-0.1,0-0.14,0H256.09C256.09,511.74,256.09,511.74,256.09,511.74 M269.35,511.61c-0.45,0-1.45,0.03-3.24,0.06
			c-1.89,0.03-4.66,0.07-8.64,0.07h11.81c0.16-0.04,0.28-0.06,0.34-0.08c0.02-0.01,0.04-0.01,0.05-0.02
			C269.68,511.62,269.59,511.61,269.35,511.61"/>
	</g>
	<g>
		<defs>
			<polyline id="SVGID_00000122693539725579094360000005200222844350702760_" points="422.24,210.59 511.82,210.59 511.82,388.28 
				422.24,388.28 422.24,210.59 			"/>
		</defs>
		<clipPath id="SVGID_00000061473726383145981970000015103567085193498778_">
			<use xlink:href="#SVGID_00000122693539725579094360000005200222844350702760_"  style="overflow:visible;"/>
		</clipPath>
		<path style="clip-path:url(#SVGID_00000061473726383145981970000015103567085193498778_);fill:#579C3B;" d="M511.82,210.59h-89.58
			l0,161.54c18.45,12.4,49.32,16.15,59.79,16.15c0.19,0,0.37,0,0.54,0c4.28-0.13,15.44-2.39,22.69-9.57
			c3.55-3.52,6.17-8.22,6.56-14.44V210.59"/>
	</g>
	<path class="st5" d="M511.82,391.29c0,0.52,0,1.06,0,1.61V391.29"/>
	<g>
		<defs>
			<polyline id="SVGID_00000178204389163190491410000014931742342591195266_" points="511.82,377.76 511.82,377.76 511.82,407.18 
				511.82,407.18 511.82,377.76 			"/>
		</defs>
		<clipPath id="SVGID_00000049221045018949338670000008070906159115028887_">
			<use xlink:href="#SVGID_00000178204389163190491410000014931742342591195266_"  style="overflow:visible;"/>
		</clipPath>
		<path style="clip-path:url(#SVGID_00000049221045018949338670000008070906159115028887_);fill:#579C3B;" d="M511.82,391.29
			c0,0.52,0,1.06,0,1.61V391.29"/>
		<path style="clip-path:url(#SVGID_00000049221045018949338670000008070906159115028887_);fill:#579C3B;" d="M511.82,377.76
			L511.82,377.76c0,1.37,0,5.83,0,13.53v1.61c0,3.98,0,8.73,0,14.28l0,0v0v0V392.9c0-0.55,0-1.09,0-1.61V377.76"/>
		<polyline style="clip-path:url(#SVGID_00000049221045018949338670000008070906159115028887_);fill:#579C3B;" points="
			511.82,407.18 511.82,407.18 511.82,407.18 		"/>
		
			<line style="clip-path:url(#SVGID_00000049221045018949338670000008070906159115028887_);fill:#579C3B;" x1="511.82" y1="377.76" x2="511.82" y2="377.76"/>
	</g>
	<g>
		<defs>
			<polyline id="SVGID_00000093163737329969415170000015093845999200767128_" points="0.08,0 511.82,0 511.82,215.31 0.08,215.31 
				0.08,0 			"/>
		</defs>
		<clipPath id="SVGID_00000137097828776775546310000010214001258169335979_">
			<use xlink:href="#SVGID_00000093163737329969415170000015093845999200767128_"  style="overflow:visible;"/>
		</clipPath>
		<path style="clip-path:url(#SVGID_00000137097828776775546310000010214001258169335979_);fill:#579C3B;" d="M46.06,49.44
			c-7.23,0-13.15-5.92-13.15-13.15c0-7.23,5.92-13.15,13.15-13.15H81.4c7.23,0,13.15,5.92,13.15,13.15
			c0,7.24-5.92,13.15-13.15,13.15H46.06 M434.27,49.44c-7.23,0-13.15-5.92-13.15-13.15c0-7.23,5.92-13.15,13.15-13.15h35.33
			c7.23,0,13.15,5.92,13.15,13.15c0,7.24-5.92,13.15-13.15,13.15H434.27 M255.95,57.04c-11.46,0-20.76-9.29-20.76-20.76
			c0-11.46,9.29-20.76,20.76-20.76c11.46,0,20.76,9.3,20.76,20.76C276.71,47.75,267.41,57.04,255.95,57.04 M511.82,0H0.08v215.31
			c0-0.01,0-0.02,0-0.02V74.38h511.74L511.82,0"/>
		<path style="clip-path:url(#SVGID_00000137097828776775546310000010214001258169335979_);fill:#579C3B;" d="M0.08,215.28
			c0,0.01,0,0.01,0,0.02v0.01C0.08,215.3,0.08,215.29,0.08,215.28L0.08,215.28"/>
		<path style="clip-path:url(#SVGID_00000137097828776775546310000010214001258169335979_);fill:#579C3B;" d="M511.82,74.38H0.08
			v140.91c2.5-11.54,6.24-22.72,11.26-33.46c1.73-3.71,3.62-7.38,5.66-10.98c3.43-6.05,7.19-11.8,11.27-17.22
			c8.32-11.07,17.98-20.8,28.9-29.14c5.15-3.94,10.59-7.56,16.3-10.86c23.73-13.73,49.75-20.69,77.35-20.69
			c30.73,0,58.27,7.18,82.29,21.41c10.85,6.43,20.98,14.29,30.36,23.58c2.65,2.63,5.18,5.31,7.59,8.05
			c5.65,6.4,10.65,13.12,15.05,20.13h225.7L511.82,74.38"/>
		<path style="clip-path:url(#SVGID_00000137097828776775546310000010214001258169335979_);fill:#579C3B;" d="M11.34,181.82
			c-5.02,10.74-8.76,21.92-11.26,33.46v0.01C2.58,203.75,6.33,192.57,11.34,181.82 M511.82,166.08h-225.7c0,0,0,0,0,0L511.82,166.08
			L511.82,166.08 M57.18,124.48c-10.92,8.34-20.58,18.08-28.9,29.14C36.6,142.55,46.26,132.81,57.18,124.48 M233.11,114.33
			c10.85,6.43,20.98,14.29,30.36,23.58c2.65,2.62,5.18,5.31,7.6,8.04c-2.41-2.74-4.94-5.42-7.59-8.05
			C254.1,128.62,243.97,120.75,233.11,114.33"/>
	</g>
	<g>
		<defs>
			<polyline id="SVGID_00000137133938109604961300000014604971397253765773_" points="269.18,511.74 269.34,511.74 269.34,511.76 
				269.18,511.76 269.18,511.74 			"/>
		</defs>
		<clipPath id="SVGID_00000031891527155323873940000016752737908398277544_">
			<use xlink:href="#SVGID_00000137133938109604961300000014604971397253765773_"  style="overflow:visible;"/>
		</clipPath>
		<polyline style="clip-path:url(#SVGID_00000031891527155323873940000016752737908398277544_);fill:#FEFEFE;" points="
			269.34,511.74 269.28,511.74 269.18,511.76 269.34,511.74 		"/>
	</g>
	<polyline class="st9" points="511.92,363.22 511.92,363.23 511.92,363.3 511.92,363.22 	"/>
	<g>
		<defs>
			<polyline id="SVGID_00000129920786866078649280000011646202583503754400_" points="511.82,363.22 511.92,363.22 511.92,369.67 
				511.82,369.67 511.82,363.22 			"/>
		</defs>
		<clipPath id="SVGID_00000007423975868726639710000004584022963573558428_">
			<use xlink:href="#SVGID_00000129920786866078649280000011646202583503754400_"  style="overflow:visible;"/>
		</clipPath>
		<path style="clip-path:url(#SVGID_00000007423975868726639710000004584022963573558428_);fill:#FEFEFE;" d="M511.92,363.23
			l-0.1,1.02v0.05c0-0.01,0-0.02,0-0.03v5.11l0.1-6.08V363.23"/>
		<path style="clip-path:url(#SVGID_00000007423975868726639710000004584022963573558428_);fill:#FEFEFE;" d="M511.82,364.25l0,0.03
			v0.07c0-0.01,0-0.03,0-0.04V364.25"/>
	</g>
	<g>
		<defs>
			<polyline id="SVGID_00000098208008919616117930000010937846842099393721_" points="255.95,424.18 376.59,424.18 376.59,511.74 
				255.95,511.74 255.95,424.18 			"/>
		</defs>
		<clipPath id="SVGID_00000106865699397819094140000010545819350059028106_">
			<use xlink:href="#SVGID_00000098208008919616117930000010937846842099393721_"  style="overflow:visible;"/>
		</clipPath>
		<path style="clip-path:url(#SVGID_00000106865699397819094140000010545819350059028106_);fill:#FEFEFE;" d="M257.47,511.74h-1.38
			c-0.05,0-0.09,0-0.14,0l0,0C256.48,511.74,256.98,511.74,257.47,511.74 M340.22,469.96c-14.93,13.94-30.52,25.14-47.03,33.85l0,0
			c-0.01,0.01-0.02,0.01-0.04,0.02l0.02-0.01c0.01-0.01,0.02-0.01,0.03-0.01C309.7,495.1,325.29,483.9,340.22,469.96 M376.59,424.18
			L376.59,424.18L376.59,424.18c-19.34,26.36-41.42,49.52-67.33,66.78c-5.61,3.74-11.4,7.2-17.39,10.36c-1.9,1-3.81,1.94-5.71,2.81
			c-5.71,2.61-11.4,4.6-16.88,5.89c-4.59,1.08-9.02,1.67-13.19,1.72c4.72,0,7.91-0.04,10.01-0.07c1.8-0.03,2.79-0.06,3.24-0.06
			c0.24,0,0.33,0.01,0.31,0.03c-0.01,0.01-0.02,0.01-0.05,0.02c-0.06,0.02-0.18,0.05-0.34,0.08h0.07c0,0,0.01,0,0.01,0h-0.01
			c0.37-0.03,0.75-0.07,1.12-0.12c4.74-0.58,9.63-2.12,13.64-3.68c3.53-1.37,6.4-2.76,7.9-3.52c0.04-0.02,0.08-0.04,0.12-0.06
			l1.07-0.56l0,0c16.5-8.71,32.09-19.91,47.03-33.85c9.06-8.46,17.89-17.94,26.53-28.49c3.3-4.04,6.58-8.23,9.84-12.58
			c-3.25,4.35-6.53,8.55-9.84,12.58c3.31-4.04,6.58-8.23,9.84-12.58L376.59,424.18"/>
		<polyline style="clip-path:url(#SVGID_00000106865699397819094140000010545819350059028106_);fill:#FEFEFE;" points="
			376.59,424.18 376.59,424.18 376.59,424.18 376.59,424.18 376.59,424.18 		"/>
		<path style="clip-path:url(#SVGID_00000106865699397819094140000010545819350059028106_);fill:#FEFEFE;" d="M270.47,511.62
			c-0.38,0.05-0.75,0.09-1.12,0.12h0.01C269.72,511.71,270.09,511.67,270.47,511.62 M292.28,504.29c-0.08,0.04-0.17,0.09-0.26,0.13
			l0,0l0.11-0.06c-0.04,0.02-0.08,0.04-0.12,0.06c-1.5,0.76-4.36,2.15-7.9,3.52c3.54-1.37,6.4-2.76,7.9-3.52L292.28,504.29
			 M366.75,441.47c-8.64,10.55-17.46,20.03-26.53,28.49C349.28,461.5,358.11,452.02,366.75,441.47 M376.59,428.89
			c-3.26,4.35-6.53,8.55-9.84,12.58c-8.64,10.55-17.46,20.03-26.53,28.49c-14.93,13.94-30.52,25.14-47.03,33.85
			c-0.01,0-0.02,0.01-0.03,0.01l0.03-0.01C323.55,487.79,350.8,463.38,376.59,428.89L376.59,428.89"/>
		<path style="clip-path:url(#SVGID_00000106865699397819094140000010545819350059028106_);fill:#FEFEFE;" d="M286.16,504.13
			c-5.71,2.61-11.4,4.6-16.88,5.89C274.76,508.73,280.46,506.74,286.16,504.13 M376.59,424.18
			C376.59,424.18,376.58,424.18,376.59,424.18L376.59,424.18c-19.34,26.36-41.42,49.52-67.33,66.78
			C335.17,473.7,357.25,450.54,376.59,424.18L376.59,424.18"/>
		<polyline style="clip-path:url(#SVGID_00000106865699397819094140000010545819350059028106_);fill:#FEFEFE;" points="
			376.59,424.18 376.58,424.18 376.58,424.18 376.59,424.18 376.59,424.18 		"/>
		<path style="clip-path:url(#SVGID_00000106865699397819094140000010545819350059028106_);fill:#FEFEFE;" d="M266.11,511.67
			c-2.1,0.03-5.29,0.07-10.01,0.07c0,0,0,0,0,0h1.38C261.44,511.73,264.22,511.7,266.11,511.67 M269.66,511.64
			c-0.01,0.01-0.02,0.01-0.05,0.02C269.64,511.65,269.66,511.64,269.66,511.64"/>
	</g>
	<g>
		<defs>
			<polyline id="SVGID_00000028321785646699455830000013392496941122066348_" points="422.24,364.27 511.82,364.27 511.82,390.53 
				422.24,390.53 422.24,364.27 			"/>
		</defs>
		<clipPath id="SVGID_00000115493881854989664770000017350577592663455402_">
			<use xlink:href="#SVGID_00000028321785646699455830000013392496941122066348_"  style="overflow:visible;"/>
		</clipPath>
		<polyline style="clip-path:url(#SVGID_00000115493881854989664770000017350577592663455402_);fill:#FEFEFE;" points="
			511.82,369.38 511.82,369.51 511.82,369.81 511.82,369.67 511.82,369.38 		"/>
		<path style="clip-path:url(#SVGID_00000115493881854989664770000017350577592663455402_);fill:#FEFEFE;" d="M511.82,364.34
			c-0.42,6.18-3.02,10.86-6.57,14.37c-7.25,7.18-18.4,9.44-22.69,9.57c-0.14,0-0.28,0-0.42,0c-0.04,0-0.08,0-0.11,0
			c-0.04,0-0.08,0-0.12,0c-10.59-0.03-41.29-3.79-59.67-16.15l0,0v0c0,0,0,0,0,0v3.36c0,0,0,0,0,0v0c0,0,0,0,0,0v0l0,0
			c7.51,4.66,16.66,8.03,25.68,10.38c0.02,0,0.03,0.01,0.04,0.01c0.01,0,0.01,0,0.02,0c12.61,3.27,24.97,4.56,32.3,4.64
			c0.22,0,0.44,0,0.66,0c1.88,0,3.39-0.09,4.44-0.24c4.64-0.95,10.15-2.19,15.19-4.55c1.25-0.59,2.47-1.24,3.64-1.97
			c1.4-1.21,2.52-2.35,3.42-3.41c2.74-3.23,3.45-5.74,3.87-7.43c0.1-0.41,0.19-0.77,0.28-1.08l0.03-2.18v0.23l0-0.09v-0.31l0,0.17
			V364.34"/>
		<path style="clip-path:url(#SVGID_00000115493881854989664770000017350577592663455402_);fill:#FEFEFE;" d="M507.64,380.35
			c-0.9,1.06-2.02,2.2-3.42,3.41c0,0,0,0,0,0C505.62,382.55,506.74,381.41,507.64,380.35 M511.82,369.67l-0.03,2.18
			c-0.09,0.31-0.18,0.67-0.28,1.08c0.1-0.41,0.19-0.77,0.28-1.08l0.03-1.94V369.67"/>
		<path style="clip-path:url(#SVGID_00000115493881854989664770000017350577592663455402_);fill:#FEFEFE;" d="M482.14,388.28h-0.23
			c0.04,0,0.08,0,0.12,0C482.07,388.28,482.1,388.28,482.14,388.28"/>
		<path style="clip-path:url(#SVGID_00000115493881854989664770000017350577592663455402_);fill:#FEFEFE;" d="M422.24,372.13
			L422.24,372.13c18.38,12.36,49.08,16.12,59.67,16.15h0.23c0.15,0,0.29,0,0.42,0c4.28-0.13,15.44-2.39,22.69-9.57
			c-7.25,7.18-18.4,9.44-22.69,9.57c-0.17,0-0.35,0-0.54,0C471.55,388.28,440.69,384.53,422.24,372.13"/>
		<path style="clip-path:url(#SVGID_00000115493881854989664770000017350577592663455402_);fill:#FEFEFE;" d="M511.82,364.27
			c0,0.01,0,0.02,0,0.03v5.21l0-0.13V364.27"/>
		<path style="clip-path:url(#SVGID_00000115493881854989664770000017350577592663455402_);fill:#FEFEFE;" d="M511.82,364.3
			c0,0.01,0,0.03,0,0.04v5.33l0-0.17V364.3"/>
	</g>
	<g>
		<defs>
			<polyline id="SVGID_00000176729974967561778440000009852881219961101233_" points="376.59,364.69 422.24,364.69 422.24,428.89 
				376.59,428.89 376.59,364.69 			"/>
		</defs>
		<clipPath id="SVGID_00000037682548434182438140000015732694942468178604_">
			<use xlink:href="#SVGID_00000176729974967561778440000009852881219961101233_"  style="overflow:visible;"/>
		</clipPath>
		<path style="clip-path:url(#SVGID_00000037682548434182438140000015732694942468178604_);fill:#FEFEFE;" d="M413.72,364.69
			c-3.75,6.93-7.62,13.79-11.61,20.54c-5.82,9.86-11.91,19.49-18.31,28.78c0,0-0.01,0.01-0.01,0.01c-0.01,0.01-0.02,0.03-0.03,0.04
			c-2.35,3.42-4.74,6.79-7.18,10.11v4.71c0.65-0.87,1.31-1.75,1.96-2.64c3.91-5.33,7.79-10.88,11.65-16.68
			c8.15-12.26,16.18-25.59,24.13-40.1l0.03,0.02c0.23,0.22,0.45,0.43,0.69,0.64c1.1,1,2.28,1.96,3.52,2.88
			c0.63,0.46,1.27,0.92,1.93,1.36c0.57,0.38,1.15,0.75,1.74,1.12v-3.36C418.95,369.92,416.02,367.48,413.72,364.69"/>
		<path style="clip-path:url(#SVGID_00000037682548434182438140000015732694942468178604_);fill:#FEFEFE;" d="M383.79,414.03
			c-0.01,0.01-0.02,0.03-0.03,0.04C383.77,414.05,383.78,414.04,383.79,414.03 M402.11,385.23c-5.83,9.86-11.91,19.49-18.31,28.78
			C390.2,404.72,396.29,395.09,402.11,385.23"/>
		<path style="clip-path:url(#SVGID_00000037682548434182438140000015732694942468178604_);fill:#FEFEFE;" d="M378.55,426.25
			c-0.65,0.89-1.3,1.77-1.96,2.64v0C377.24,428.01,377.89,427.13,378.55,426.25 M414.33,369.47c-7.96,14.5-15.99,27.84-24.13,40.1
			c2.75-4.14,5.48-8.39,8.21-12.78c4.23-6.81,8.43-13.92,12.61-21.35C412.12,373.47,413.22,371.48,414.33,369.47
			c-1.1,2.01-2.21,4-3.32,5.97C412.12,373.47,413.23,371.48,414.33,369.47L414.33,369.47L414.33,369.47
			C414.33,369.47,414.33,369.47,414.33,369.47l0.02,0.02l0.01,0.01l-0.01-0.01l0.01,0.01c0.19,0.18,0.39,0.36,0.58,0.54
			c-0.2-0.18-0.39-0.36-0.58-0.54l0,0l0,0c0.23,0.22,0.46,0.43,0.69,0.64c-0.23-0.21-0.46-0.43-0.69-0.64L414.33,369.47"/>
		<path style="clip-path:url(#SVGID_00000037682548434182438140000015732694942468178604_);fill:#FEFEFE;" d="M414.34,369.48
			L414.34,369.48l0.01,0.01L414.34,369.48 M414.33,369.47L414.33,369.47L414.33,369.47L414.33,369.47"/>
		<path style="clip-path:url(#SVGID_00000037682548434182438140000015732694942468178604_);fill:#FEFEFE;" d="M390.19,409.56
			c-3.85,5.8-7.74,11.35-11.65,16.68C382.46,420.92,386.34,415.36,390.19,409.56"/>
		<path style="clip-path:url(#SVGID_00000037682548434182438140000015732694942468178604_);fill:#FEFEFE;" d="M398.4,396.79
			c-2.72,4.38-5.46,8.64-8.21,12.78c-3.85,5.8-7.74,11.36-11.65,16.68c-0.65,0.89-1.3,1.77-1.96,2.64v0
			C383.97,419.02,391.22,408.34,398.4,396.79"/>
	</g>
	<g>
		<defs>
			<polyline id="SVGID_00000134962861106592516720000012130151762186880932_" points="292.01,428.89 376.59,428.89 376.59,504.42 
				292.01,504.42 292.01,428.89 			"/>
		</defs>
		<clipPath id="SVGID_00000076590349168108280210000015883176258547126670_">
			<use xlink:href="#SVGID_00000134962861106592516720000012130151762186880932_"  style="overflow:visible;"/>
		</clipPath>
		<path style="clip-path:url(#SVGID_00000076590349168108280210000015883176258547126670_);fill:#FEFEFE;" d="M293.15,503.83
			l-0.82,0.42c0.26-0.13,0.49-0.25,0.64-0.33C293.05,503.89,293.11,503.86,293.15,503.83"/>
		<path style="clip-path:url(#SVGID_00000076590349168108280210000015883176258547126670_);fill:#FEFEFE;" d="M292.97,503.93
			c-0.15,0.08-0.38,0.2-0.64,0.33l-0.06,0.03C292.56,504.14,292.81,504.02,292.97,503.93"/>
		<path style="clip-path:url(#SVGID_00000076590349168108280210000015883176258547126670_);fill:#FEFEFE;" d="M293.19,503.81
			l-1.07,0.56c0.07-0.04,0.14-0.07,0.21-0.11l0.82-0.42C293.17,503.82,293.18,503.82,293.19,503.81"/>
		<path style="clip-path:url(#SVGID_00000076590349168108280210000015883176258547126670_);fill:#FEFEFE;" d="M292.33,504.26
			c-0.07,0.03-0.14,0.07-0.21,0.11l-0.11,0.06c0.09-0.05,0.18-0.09,0.26-0.13L292.33,504.26"/>
	</g>
	<path class="st23" d="M481.87,391.14h-0.35c0.06,0,0.12,0,0.17,0C481.76,391.14,481.81,391.14,481.87,391.14"/>
	<g>
		<defs>
			<polyline id="SVGID_00000024710307296942606640000004331158590671651747_" points="422.24,375.49 504.22,375.49 504.22,391.14 
				422.24,391.14 422.24,375.49 			"/>
		</defs>
		<clipPath id="SVGID_00000146486863299941340960000015126860894019857049_">
			<use xlink:href="#SVGID_00000024710307296942606640000004331158590671651747_"  style="overflow:visible;"/>
		</clipPath>
		<path style="clip-path:url(#SVGID_00000146486863299941340960000015126860894019857049_);fill:#FEFEFE;" d="M422.24,375.49v0.11
			c3.48,2.23,7.28,4.16,11.22,5.82c7.56,3.19,15.65,5.41,23.17,6.91c10.53,2.1,19.92,2.8,25.07,2.8c0.44,0,0.85-0.01,1.23-0.02
			c10.92-0.43,17.51-4.93,20.43-6.59l0.85-0.76c-1.17,0.73-2.39,1.38-3.63,1.96c-5.05,2.36-10.55,3.61-15.19,4.55
			c-1.04,0.16-2.55,0.24-4.42,0.24c-0.22,0-0.45,0-0.68,0c-7.33-0.07-19.7-1.37-32.3-4.64c0,0-0.01,0-0.02,0
			c-0.01,0-0.03-0.01-0.04-0.01C438.9,383.52,429.75,380.16,422.24,375.49"/>
		<path style="clip-path:url(#SVGID_00000146486863299941340960000015126860894019857049_);fill:#FEFEFE;" d="M504.22,383.77
			C504.22,383.77,504.21,383.77,504.22,383.77l-0.86,0.76c-2.91,1.66-9.51,6.17-20.43,6.59c-0.38,0.01-0.79,0.02-1.23,0.02
			c-5.15,0-14.54-0.7-25.07-2.8c10.41,2.08,19.71,2.79,24.9,2.8h0.35c0.38,0,0.73-0.01,1.05-0.01c10.92-0.43,17.51-4.94,20.43-6.59
			L504.22,383.77 M422.24,375.61L422.24,375.61c3.48,2.23,7.28,4.16,11.22,5.82C429.52,379.76,425.73,377.84,422.24,375.61"/>
		<path style="clip-path:url(#SVGID_00000146486863299941340960000015126860894019857049_);fill:#FEFEFE;" d="M447.97,385.88
			c0,0,0.01,0,0.02,0C447.98,385.88,447.98,385.88,447.97,385.88 M500.58,385.74c-5.05,2.36-10.55,3.6-15.19,4.55
			c-1.05,0.16-2.56,0.24-4.44,0.24c-0.22,0-0.43,0-0.66,0c0.23,0,0.46,0,0.68,0c1.87,0,3.38-0.09,4.42-0.24
			C490.03,389.34,495.53,388.1,500.58,385.74 M422.24,375.49L422.24,375.49c7.51,4.67,16.66,8.03,25.68,10.38
			C438.9,383.52,429.75,380.15,422.24,375.49"/>
	</g>
	<g>
		<defs>
			<polyline id="SVGID_00000142860536899234963270000013889193787360509117_" points="414.36,369.49 422.24,369.49 422.24,375.61 
				414.36,375.61 414.36,369.49 			"/>
		</defs>
		<clipPath id="SVGID_00000181773365176447391360000001175564776356071615_">
			<use xlink:href="#SVGID_00000142860536899234963270000013889193787360509117_"  style="overflow:visible;"/>
		</clipPath>
		<path style="clip-path:url(#SVGID_00000181773365176447391360000001175564776356071615_);fill:#FEFEFE;" d="M415.26,370.33
			c2.12,1.92,4.47,3.67,6.98,5.27v-0.11c0,0,0,0,0,0l0,0v0c0,0,0,0,0,0v0c-0.59-0.37-1.17-0.74-1.74-1.12
			c-0.66-0.44-1.3-0.89-1.93-1.36C417.41,372.16,416.3,371.26,415.26,370.33"/>
		<path style="clip-path:url(#SVGID_00000181773365176447391360000001175564776356071615_);fill:#FEFEFE;" d="M414.94,370.04
			c2.21,2.04,4.67,3.89,7.3,5.57l0,0v0c-2.5-1.6-4.85-3.35-6.98-5.27C415.15,370.23,415.04,370.14,414.94,370.04"/>
		<polyline style="clip-path:url(#SVGID_00000181773365176447391360000001175564776356071615_);fill:#FEFEFE;" points="
			422.24,375.49 422.24,375.49 422.24,375.49 422.24,375.49 422.24,375.49 		"/>
		<path style="clip-path:url(#SVGID_00000181773365176447391360000001175564776356071615_);fill:#FEFEFE;" d="M415.05,370.13
			c0.07,0.07,0.14,0.13,0.22,0.2c1.04,0.93,2.14,1.82,3.3,2.68C417.33,372.1,416.15,371.14,415.05,370.13"/>
		<path style="clip-path:url(#SVGID_00000181773365176447391360000001175564776356071615_);fill:#FEFEFE;" d="M414.36,369.49
			L414.36,369.49c0.19,0.18,0.38,0.36,0.58,0.54c0.11,0.1,0.22,0.2,0.33,0.3c-0.07-0.07-0.14-0.13-0.22-0.2
			C414.81,369.92,414.58,369.71,414.36,369.49"/>
		<path style="clip-path:url(#SVGID_00000181773365176447391360000001175564776356071615_);fill:#FEFEFE;" d="M420.5,374.37
			c0.57,0.38,1.15,0.75,1.74,1.12v0C421.65,375.12,421.07,374.75,420.5,374.37"/>
	</g>
	<g>
		<defs>
			<polyline id="SVGID_00000092457870555633901860000007104084504533761197_" points="376.59,369.47 414.33,369.47 414.33,428.89 
				376.59,428.89 376.59,369.47 			"/>
		</defs>
		<clipPath id="SVGID_00000062900069876181332280000016718911767251877511_">
			<use xlink:href="#SVGID_00000092457870555633901860000007104084504533761197_"  style="overflow:visible;"/>
		</clipPath>
		<path style="clip-path:url(#SVGID_00000062900069876181332280000016718911767251877511_);fill:#FEFEFE;" d="M376.59,428.89
			C376.59,428.89,376.59,428.89,376.59,428.89L376.59,428.89C376.59,428.89,376.59,428.89,376.59,428.89L376.59,428.89
			 M411.01,375.43L411.01,375.43c-4.18,7.43-8.38,14.54-12.61,21.35l0,0C402.63,389.98,406.83,382.86,411.01,375.43"/>
		<path style="clip-path:url(#SVGID_00000062900069876181332280000016718911767251877511_);fill:#FEFEFE;" d="M414.33,369.47
			c-1.1,2.01-2.21,4-3.31,5.97l0,0C412.12,373.47,413.22,371.48,414.33,369.47"/>
		<path style="clip-path:url(#SVGID_00000062900069876181332280000016718911767251877511_);fill:#FEFEFE;" d="M390.19,409.56
			c-3.85,5.8-7.74,11.35-11.65,16.68l0,0C382.46,420.92,386.34,415.36,390.19,409.56L390.19,409.56"/>
		<path style="clip-path:url(#SVGID_00000062900069876181332280000016718911767251877511_);fill:#FEFEFE;" d="M378.55,426.25
			L378.55,426.25c-0.65,0.89-1.3,1.77-1.96,2.64l0,0C377.24,428.01,377.89,427.13,378.55,426.25 M398.4,396.79
			c-2.72,4.38-5.46,8.64-8.21,12.78l0,0C392.94,405.43,395.68,401.17,398.4,396.79L398.4,396.79"/>
	</g>
</g>
</svg>
